<svg width="1134" height="1470" viewBox="0 0 1134 1470" fill="none" xmlns="http://www.w3.org/2000/svg">
<path d="M1123.92 1276.06C963.39 1397.25 767.457 1462.48 566.164 1461.59C364.674 1460.7 169.139 1393.61 9.60447 1270.78L245.817 1160.06L245.822 1160.05C257.669 1154.48 269.039 1147.95 279.819 1140.52C283.068 1138.29 286.357 1135.93 289.514 1133.45C316.586 1112.73 338.87 1086.41 354.845 1056.29L354.853 1056.28L354.861 1056.26C366.949 1033.11 374.98 1008.05 378.606 982.178C381.085 965.518 382.34 948.698 382.362 931.855V931.848C382.362 914.447 381.91 897.063 381.308 879.72C380.958 868.421 380.659 857.093 380.509 845.824C380.344 832.696 380.201 819.557 380.081 806.406L382.755 807.744L382.786 807.759L408.757 821.195L409.449 821.552L410.216 821.683L422.281 823.735L422.282 823.736L561.855 847.465L561.857 847.465L713.613 873.311L718.198 1029.42L718.198 1029.42L719.75 1081.78L720.499 1107.14V1108.62V1111.94L723.563 1113.23L728.569 1115.33L728.596 1115.34L728.622 1115.35L784.042 1137.88L1123.92 1276.06Z" fill="white" stroke="black" stroke-width="10"/>
<path d="M725.449 1108.62C708.242 1111.58 690.54 1108.84 675.035 1100.81L376.311 856.654C375.96 845.34 375.66 857.155 375.51 845.841C375.31 829.987 375.143 814.117 375.009 798.23L385.022 803.237L411.054 816.704L423.12 818.756L562.695 842.487L718.49 869.02L723.196 1029.22L724.748 1081.59L725.499 1107.02V1108.62H725.449Z" fill="#B4B4B4"/>
<path d="M1124.02 1278.95C963.468 1400.48 767.496 1465.88 566.164 1464.99C364.635 1464.1 169.062 1396.83 9.49823 1273.66L245.77 1162.63L245.775 1162.62C257.625 1157.04 268.998 1150.49 279.779 1143.04M1124.02 1278.95L279.779 1143.04M1124.02 1278.95L788.147 1142.07C769.278 1172.57 739.056 1196.16 706.512 1210.94L706.5 1210.95C566.136 1274.27 404.806 1221.56 286.523 1138.21M1124.02 1278.95L286.523 1138.21M279.779 1143.04C279.779 1143.04 279.779 1143.04 279.778 1143.04L276.947 1138.94L279.783 1143.04C279.782 1143.04 279.78 1143.04 279.779 1143.04ZM286.523 1138.21C285.512 1137.5 284.504 1136.79 283.5 1136.07L286.404 1132M286.523 1138.21C287.525 1137.46 288.519 1136.7 289.501 1135.93L286.404 1132M286.404 1132C404.32 1216.13 565.247 1269.19 704.444 1206.39L243.644 1158.1C255.247 1152.63 266.383 1146.22 276.941 1138.93C280.145 1136.72 283.35 1134.41 286.404 1132Z" fill="white" stroke="black" stroke-width="10"/>
<path d="M1021.33 320.339L1021.33 320.344C1018.53 325.251 1015.54 330.154 1012.31 335.052C1003.67 347.714 994.249 359.823 984.096 371.307C984.092 371.312 984.087 371.317 984.082 371.323L977.95 378.153L977.945 378.158L977.94 378.164C973.82 382.78 969.643 387.305 965.449 391.799L954.397 403.64L970.201 400.089C979.431 398.015 988.837 401.198 996.642 407.831C1004.47 414.482 1010.22 424.259 1011.99 434.277C1015.63 454.92 1007.43 476.239 996.468 496.072L996.462 496.082L996.457 496.092C987.03 513.337 975.483 527.771 963.099 541.838C959.174 546.296 955.134 550.75 951.048 555.254C942.363 564.829 933.472 574.63 925.053 585.175C916.481 595.844 909.644 607.389 903.023 618.572C902.32 619.758 901.62 620.941 900.92 622.118C893.557 634.505 886.211 646.37 876.555 656.917L876.549 656.923L876.543 656.93L875.081 658.538C849.349 685.539 816.017 702.371 780.08 715.438C762.11 721.971 743.593 727.529 725.117 732.963C723.166 733.537 721.215 734.109 719.265 734.681C702.798 739.514 686.408 744.325 670.717 749.679L670.706 749.683C665.625 751.431 650.414 755.991 629.356 762.305C598.647 771.513 555.502 784.45 513.202 797.829C477.69 809.061 442.872 820.577 416.902 830.355C403.939 835.235 393.044 839.732 385.337 843.585C381.797 845.355 378.761 847.071 376.467 848.708C375.999 848.14 375.497 847.548 374.966 846.933C371.848 843.325 367.392 838.594 361.955 833.041C351.063 821.917 335.996 807.252 319.244 791.201L319.236 791.194L319.228 791.186C200.528 678.471 161.644 504.493 232.145 355.395L232.146 355.393C308.196 194.374 481.302 78.9561 646.789 23.4285C698.643 6.04409 755.877 -5.00823 803.199 18.1722C826.367 29.5207 843.979 52.9956 850.839 78.1038C857.692 103.188 853.599 128.842 835.007 145.475L841.357 153.189C866.07 134.492 896.808 125.56 927.693 128.102L927.741 128.106L927.79 128.109C956.234 129.891 983.059 141.955 1003.27 162.051C1019.34 178.195 1030.89 198.274 1036.76 220.28L1036.77 220.283C1041.11 236.513 1041.99 253.476 1039.36 270.071L1039.36 270.086L1039.36 270.101C1038.92 272.929 1038.4 275.713 1037.77 278.503C1034.41 292.909 1029.01 306.763 1021.73 319.645C1021.73 319.65 1021.73 319.655 1021.72 319.659L1021.33 320.339Z" fill="white" stroke="black" stroke-width="10"/>
<path d="M1036.72 281.556L1036.73 281.533C1037.13 280.658 1037.52 279.856 1037.91 279.104C1038.47 276.52 1038.95 273.938 1039.35 271.317L1039.36 271.307L1039.36 271.297C1041.87 255.249 1041.09 238.862 1037.08 223.133C1021.36 210.813 1002.65 202.886 982.844 200.178L982.832 200.177L982.82 200.175C959.096 196.814 934.268 198.979 915.279 211.451C889.542 230.195 866.353 252.208 846.297 276.937C834.141 293.367 831.799 302.764 832.159 312.799C832.322 317.339 833.039 322.039 833.922 327.831C834.088 328.916 834.259 330.039 834.434 331.207C835.524 338.497 836.669 347.122 837.028 357.961L1036.72 281.556ZM1036.72 281.556L1036.71 281.579C1034.17 287.376 1032.22 293.375 1030.35 299.126C1030.05 300.058 1029.75 300.983 1029.45 301.9C1027.26 308.554 1025.04 314.896 1021.89 320.936M1036.72 281.556L1021.89 320.936M1021.89 320.936L1021.53 321.555L1021.53 321.56C1018.73 326.473 1015.74 331.38 1012.5 336.284C1003.96 348.987 994.547 361.082 984.331 372.482L978.002 379.31L977.97 379.345L977.938 379.38C973.819 383.996 969.642 388.521 965.448 393.015L954.396 404.856L970.199 401.305C979.429 399.231 988.836 402.414 996.641 409.048C1004.47 415.698 1010.22 425.475 1011.99 435.493C1015.63 456.136 1007.42 477.455 996.466 497.288L996.461 497.298L996.455 497.308C987.029 514.553 975.482 528.987 963.097 543.055C959.173 547.512 955.133 551.966 951.047 556.47C942.361 566.046 933.47 575.847 925.05 586.393C916.479 597.061 909.643 608.606 903.022 619.787C902.319 620.974 901.618 622.157 900.919 623.335C894.558 634.035 888.21 644.346 880.375 653.754C859.811 627.657 846.685 596.439 842.449 563.412C838.383 530.537 837.582 496.109 837.525 461.375C837.509 451.307 837.556 441.201 837.602 431.101C837.716 406.461 837.83 381.863 837.028 357.963L1021.89 320.936Z" fill="white" stroke="black" stroke-width="10"/>
<path d="M423.927 658.056C423.927 697.376 392.051 729.252 352.731 729.252C313.411 729.252 281.536 697.376 281.536 658.056C281.536 618.735 313.411 586.859 352.731 586.859C392.051 586.859 423.927 618.735 423.927 658.056Z" fill="white" stroke="black" stroke-width="10"/>
<path d="M886.525 582.137L886.024 585.136L888.446 586.952L888.449 586.955C888.456 586.96 888.472 586.973 888.498 586.993C888.526 587.014 888.565 587.045 888.614 587.084C888.656 587.117 888.705 587.157 888.762 587.203C889.009 587.403 889.396 587.725 889.908 588.174C890.931 589.073 892.453 590.483 894.347 592.451C898.134 596.386 903.412 602.559 909.177 611.358C920.697 628.941 934.211 657.091 941.602 698.974C943.927 712.214 941.294 731.771 934.798 755.802C928.351 779.653 918.292 807.244 906.37 836.229C883.926 890.793 855.068 949.855 831.78 997.518C830.327 1000.49 828.896 1003.42 827.489 1006.3C817.223 1027.23 799.543 1043.6 777.882 1052.23C756.351 1060.8 732.415 1061.12 710.673 1053.12L380.694 860.316L359.116 580.779C360.086 580.244 361.295 579.578 362.722 578.791C366.848 576.518 372.801 573.241 380.109 569.222C394.725 561.185 414.759 550.186 436.432 538.336C479.792 514.628 529.647 487.551 555.826 473.962C567.488 467.967 579.371 461.971 591.378 455.912C681.799 410.285 779.292 361.089 842.899 282.139C848.563 288.571 854.383 294.466 860.079 300.114C861.401 301.424 862.713 302.719 864.015 304.003C869.698 309.61 875.173 315.011 880.327 320.646C892.893 334.384 903.169 349.114 908.229 369.686L908.231 369.694C916.59 403.445 910.616 438.472 904.634 473.542C904.135 476.464 903.637 479.386 903.147 482.308L903.145 482.317C897.639 515.49 892.099 548.763 886.525 582.137Z" fill="white" stroke="black" stroke-width="10"/>
<path d="M599.793 566.94C630.333 566.94 630.333 613.9 599.793 614.15H598.391C567.85 614.15 567.85 567.191 598.391 566.94H599.793Z" fill="black"/>
<path d="M850.707 559.982C879.095 560.232 879.095 603.537 850.707 603.787H849.456C821.118 603.787 821.118 560.232 849.456 559.982H850.707Z" fill="black"/>
<path d="M727.001 553.374C726.6 555.126 793.884 734.253 793.884 734.253L704.072 738.608" fill="white"/>
<path d="M727.001 553.374C726.6 555.126 793.884 734.253 793.884 734.253L704.072 738.608" stroke="black" stroke-width="10" stroke-miterlimit="10"/>
<path d="M514.334 518.73C560.681 509.16 608.35 507.822 655.161 514.775" stroke="black" stroke-width="10" stroke-miterlimit="10"/>
<path d="M809.955 519.281C838.569 512.643 868.057 510.598 897.314 513.223" stroke="black" stroke-width="10" stroke-miterlimit="10"/>
<path d="M622.472 790.214L622.535 790.262L622.601 790.308C623.71 791.087 624.938 791.976 626.282 792.949C637.195 800.853 655.78 814.313 680.969 819.305C700.244 823.154 718.147 821.194 731.692 819.611C732.016 819.574 732.337 819.536 732.655 819.499C739.133 818.74 744.284 818.138 748.322 818.197C752.782 818.262 754.1 819.15 754.495 819.638C754.891 820.132 754.909 820.398 754.903 820.596C754.893 820.925 754.75 821.642 754.009 822.851C752.466 825.367 749.26 828.558 744.304 832.583C734.312 840.032 722.935 845.416 710.839 848.42C698.735 851.426 686.154 851.988 673.831 850.074C657.676 847.014 643.114 835.999 632.446 823.572C627.143 817.396 622.935 811.02 620.077 805.399C617.163 799.665 615.929 795.256 615.905 792.797C615.929 792.275 616.075 791.766 616.332 791.312C616.641 790.834 617.042 790.423 617.512 790.102C618 789.769 618.551 789.541 619.132 789.433C619.712 789.325 620.309 789.338 620.884 789.473C621.459 789.607 621.999 789.86 622.472 790.214Z" fill="white" stroke="black" stroke-width="10"/>
</svg>
